<svg width="375" height="812" viewBox="0 0 375 812" fill="none" xmlns="http://www.w3.org/2000/svg">
<g clip-path="url(#clip0)">
<rect width="375" height="812" fill="white"/>
<path d="M378.147 -104.238C378.147 -104.238 319.729 0.756407 159.73 -0.139797C-0.267972 -1.036 0.00230354 254.476 0.00230354 254.476L5.48693 -374L380.473 -370.728L378.147 -104.238Z" fill="#8EC9FF"/>
<path d="M0 428.5C0 428.5 57.5 323 217.5 322.5C377.5 322 375 66.5 375 66.5V695H0V428.5Z" fill="#8EC9FF"/>
<path d="M0 423C0 423 30.5 322 190.5 321.5C350.5 321 375 210 375 210V812H0V423Z" fill="#0B8FAC"/>
<g clip-path="url(#clip1)">
<path d="M237.885 117.787H216.344V107.046C228.694 102.806 237.885 88.2023 237.885 70.6773H216.344V61.2553C216.344 56.0732 213.113 51.8333 209.163 51.8333H151.721C147.772 51.8333 144.541 56.0732 144.541 61.2553V70.6773H123C123 88.2023 132.191 102.806 144.541 107.046V117.787H123C123 135.312 132.191 149.916 144.541 154.156V164.897H123C123 182.422 132.191 197.026 144.541 201.266V212.007C144.541 217.189 147.772 221.429 151.721 221.429H209.163C213.113 221.429 216.344 217.189 216.344 212.007V201.266C228.694 197.026 237.885 182.422 237.885 164.897H216.344V154.156C228.694 149.916 237.885 135.312 237.885 117.787ZM180.442 202.585C172.472 202.585 166.082 194.106 166.082 183.741C166.082 173.377 172.472 164.897 180.442 164.897C188.341 164.897 194.803 173.377 194.803 183.741C194.803 194.106 188.412 202.585 180.442 202.585ZM180.442 155.475C172.472 155.475 166.082 146.996 166.082 136.631C166.082 126.267 172.472 117.787 180.442 117.787C188.341 117.787 194.803 126.267 194.803 136.631C194.803 146.996 188.412 155.475 180.442 155.475ZM180.442 108.365C172.472 108.365 166.082 99.8855 166.082 89.5213C166.082 79.0629 172.472 70.6773 180.442 70.6773C188.341 70.6773 194.803 79.0629 194.803 89.5213C194.803 99.8855 188.412 108.365 180.442 108.365Z" fill="#0B8FAC"/>
</g>
<path d="M91.4072 237.552H83.3432V232.8H105.303V237.552H97.2392V258H91.4072V237.552ZM112.987 241.188C113.659 240.252 114.559 239.544 115.687 239.064C116.839 238.584 118.159 238.344 119.647 238.344V243.528C119.023 243.48 118.603 243.456 118.387 243.456C116.779 243.456 115.519 243.912 114.607 244.824C113.695 245.712 113.239 247.056 113.239 248.856V258H107.623V238.632H112.987V241.188ZM130.693 238.344C133.693 238.344 135.997 239.064 137.605 240.504C139.213 241.92 140.017 244.068 140.017 246.948V258H134.761V255.588C133.705 257.388 131.737 258.288 128.857 258.288C127.369 258.288 126.073 258.036 124.969 257.532C123.889 257.028 123.061 256.332 122.485 255.444C121.909 254.556 121.621 253.548 121.621 252.42C121.621 250.62 122.293 249.204 123.637 248.172C125.005 247.14 127.105 246.624 129.937 246.624H134.401C134.401 245.4 134.029 244.464 133.285 243.816C132.541 243.144 131.425 242.808 129.937 242.808C128.905 242.808 127.885 242.976 126.877 243.312C125.893 243.624 125.053 244.056 124.357 244.608L122.341 240.684C123.397 239.94 124.657 239.364 126.121 238.956C127.609 238.548 129.133 238.344 130.693 238.344ZM130.261 254.508C131.221 254.508 132.073 254.292 132.817 253.86C133.561 253.404 134.089 252.744 134.401 251.88V249.9H130.549C128.245 249.9 127.093 250.656 127.093 252.168C127.093 252.888 127.369 253.464 127.921 253.896C128.497 254.304 129.277 254.508 130.261 254.508ZM151.256 239.064H156.224V243.384H151.4V258H145.784V243.384H142.796V239.064H145.784V238.2C145.784 235.992 146.432 234.24 147.728 232.944C149.048 231.648 150.896 231 153.272 231C154.112 231 154.904 231.096 155.648 231.288C156.416 231.456 157.052 231.708 157.556 232.044L156.08 236.112C155.432 235.656 154.676 235.428 153.812 235.428C152.108 235.428 151.256 236.364 151.256 238.236V239.064ZM165.178 239.064H170.146V243.384H165.322V258H159.706V243.384H156.718V239.064H159.706V238.2C159.706 235.992 160.354 234.24 161.65 232.944C162.97 231.648 164.818 231 167.194 231C168.034 231 168.826 231.096 169.57 231.288C170.338 231.456 170.974 231.708 171.478 232.044L170.002 236.112C169.354 235.656 168.598 235.428 167.734 235.428C166.03 235.428 165.178 236.364 165.178 238.236V239.064ZM175.834 238.632H181.45V258H175.834V238.632ZM178.642 235.932C177.61 235.932 176.77 235.632 176.122 235.032C175.474 234.432 175.15 233.688 175.15 232.8C175.15 231.912 175.474 231.168 176.122 230.568C176.77 229.968 177.61 229.668 178.642 229.668C179.674 229.668 180.514 229.956 181.162 230.532C181.81 231.108 182.134 231.828 182.134 232.692C182.134 233.628 181.81 234.408 181.162 235.032C180.514 235.632 179.674 235.932 178.642 235.932ZM196.015 258.288C193.951 258.288 192.091 257.868 190.435 257.028C188.803 256.164 187.519 254.976 186.583 253.464C185.671 251.952 185.215 250.236 185.215 248.316C185.215 246.396 185.671 244.68 186.583 243.168C187.519 241.656 188.803 240.48 190.435 239.64C192.091 238.776 193.951 238.344 196.015 238.344C198.055 238.344 199.831 238.776 201.343 239.64C202.879 240.48 203.995 241.692 204.691 243.276L200.335 245.616C199.327 243.84 197.875 242.952 195.979 242.952C194.515 242.952 193.303 243.432 192.343 244.392C191.383 245.352 190.903 246.66 190.903 248.316C190.903 249.972 191.383 251.28 192.343 252.24C193.303 253.2 194.515 253.68 195.979 253.68C197.899 253.68 199.351 252.792 200.335 251.016L204.691 253.392C203.995 254.928 202.879 256.128 201.343 256.992C199.831 257.856 198.055 258.288 196.015 258.288ZM235.111 252.6H223.411L221.179 258H215.203L226.435 232.8H232.195L243.463 258H237.343L235.111 252.6ZM233.275 248.172L229.279 238.524L225.283 248.172H233.275ZM257.13 238.344C258.93 238.344 260.562 238.764 262.026 239.604C263.514 240.42 264.678 241.584 265.518 243.096C266.358 244.584 266.778 246.324 266.778 248.316C266.778 250.308 266.358 252.06 265.518 253.572C264.678 255.06 263.514 256.224 262.026 257.064C260.562 257.88 258.93 258.288 257.13 258.288C254.658 258.288 252.714 257.508 251.298 255.948V264.984H245.682V238.632H251.046V240.864C252.438 239.184 254.466 238.344 257.13 238.344ZM256.158 253.68C257.598 253.68 258.774 253.2 259.686 252.24C260.622 251.256 261.09 249.948 261.09 248.316C261.09 246.684 260.622 245.388 259.686 244.428C258.774 243.444 257.598 242.952 256.158 242.952C254.718 242.952 253.53 243.444 252.594 244.428C251.682 245.388 251.226 246.684 251.226 248.316C251.226 249.948 251.682 251.256 252.594 252.24C253.53 253.2 254.718 253.68 256.158 253.68ZM281.985 238.344C283.785 238.344 285.417 238.764 286.881 239.604C288.369 240.42 289.533 241.584 290.373 243.096C291.213 244.584 291.633 246.324 291.633 248.316C291.633 250.308 291.213 252.06 290.373 253.572C289.533 255.06 288.369 256.224 286.881 257.064C285.417 257.88 283.785 258.288 281.985 258.288C279.513 258.288 277.569 257.508 276.153 255.948V264.984H270.537V238.632H275.901V240.864C277.293 239.184 279.321 238.344 281.985 238.344ZM281.013 253.68C282.453 253.68 283.629 253.2 284.541 252.24C285.477 251.256 285.945 249.948 285.945 248.316C285.945 246.684 285.477 245.388 284.541 244.428C283.629 243.444 282.453 242.952 281.013 242.952C279.573 242.952 278.385 243.444 277.449 244.428C276.537 245.388 276.081 246.684 276.081 248.316C276.081 249.948 276.537 251.256 277.449 252.24C278.385 253.2 279.573 253.68 281.013 253.68Z" fill="#0B8FAC"/>
<g filter="url(#filter0_d)">
<rect x="42" y="460" width="291" height="77" rx="17" fill="white"/>
</g>
<path d="M108.214 489.4H111.13V499.624H117.448V502H108.214V489.4ZM128.833 499.66V502H119.077V489.4H128.599V491.74H121.975V494.476H127.825V496.744H121.975V499.66H128.833ZM133.763 491.776H129.731V489.4H140.711V491.776H136.679V502H133.763V491.776ZM143.602 488.5C144.106 488.5 144.52 488.662 144.844 488.986C145.168 489.298 145.33 489.712 145.33 490.228C145.33 490.468 145.3 490.708 145.24 490.948C145.18 491.188 145.054 491.548 144.862 492.028L143.818 494.62H142.036L142.81 491.776C142.51 491.644 142.276 491.446 142.108 491.182C141.94 490.918 141.856 490.6 141.856 490.228C141.856 489.712 142.018 489.298 142.342 488.986C142.678 488.662 143.098 488.5 143.602 488.5ZM151.746 502.216C150.75 502.216 149.784 502.084 148.848 501.82C147.924 501.544 147.18 501.19 146.616 500.758L147.606 498.562C148.146 498.958 148.788 499.276 149.532 499.516C150.276 499.756 151.02 499.876 151.764 499.876C152.592 499.876 153.204 499.756 153.6 499.516C153.996 499.264 154.194 498.934 154.194 498.526C154.194 498.226 154.074 497.98 153.834 497.788C153.606 497.584 153.306 497.422 152.934 497.302C152.574 497.182 152.082 497.05 151.458 496.906C150.498 496.678 149.712 496.45 149.1 496.222C148.488 495.994 147.96 495.628 147.516 495.124C147.084 494.62 146.868 493.948 146.868 493.108C146.868 492.376 147.066 491.716 147.462 491.128C147.858 490.528 148.452 490.054 149.244 489.706C150.048 489.358 151.026 489.184 152.178 489.184C152.982 489.184 153.768 489.28 154.536 489.472C155.304 489.664 155.976 489.94 156.552 490.3L155.652 492.514C154.488 491.854 153.324 491.524 152.16 491.524C151.344 491.524 150.738 491.656 150.342 491.92C149.958 492.184 149.766 492.532 149.766 492.964C149.766 493.396 149.988 493.72 150.432 493.936C150.888 494.14 151.578 494.344 152.502 494.548C153.462 494.776 154.248 495.004 154.86 495.232C155.472 495.46 155.994 495.82 156.426 496.312C156.87 496.804 157.092 497.47 157.092 498.31C157.092 499.03 156.888 499.69 156.48 500.29C156.084 500.878 155.484 501.346 154.68 501.694C153.876 502.042 152.898 502.216 151.746 502.216ZM172.696 495.502H175.36V500.614C174.676 501.13 173.884 501.526 172.984 501.802C172.084 502.078 171.178 502.216 170.266 502.216C168.958 502.216 167.782 501.94 166.738 501.388C165.694 500.824 164.872 500.05 164.272 499.066C163.684 498.07 163.39 496.948 163.39 495.7C163.39 494.452 163.684 493.336 164.272 492.352C164.872 491.356 165.7 490.582 166.756 490.03C167.812 489.466 169 489.184 170.32 489.184C171.424 489.184 172.426 489.37 173.326 489.742C174.226 490.114 174.982 490.654 175.594 491.362L173.722 493.09C172.822 492.142 171.736 491.668 170.464 491.668C169.66 491.668 168.946 491.836 168.322 492.172C167.698 492.508 167.212 492.982 166.864 493.594C166.516 494.206 166.342 494.908 166.342 495.7C166.342 496.48 166.516 497.176 166.864 497.788C167.212 498.4 167.692 498.88 168.304 499.228C168.928 499.564 169.636 499.732 170.428 499.732C171.268 499.732 172.024 499.552 172.696 499.192V495.502ZM187.825 499.66V502H178.069V489.4H187.591V491.74H180.967V494.476H186.817V496.744H180.967V499.66H187.825ZM192.755 491.776H188.723V489.4H199.703V491.776H195.671V502H192.755V491.776ZM214.884 495.502H217.548V500.614C216.864 501.13 216.072 501.526 215.172 501.802C214.272 502.078 213.366 502.216 212.454 502.216C211.146 502.216 209.97 501.94 208.926 501.388C207.882 500.824 207.06 500.05 206.46 499.066C205.872 498.07 205.578 496.948 205.578 495.7C205.578 494.452 205.872 493.336 206.46 492.352C207.06 491.356 207.888 490.582 208.944 490.03C210 489.466 211.188 489.184 212.508 489.184C213.612 489.184 214.614 489.37 215.514 489.742C216.414 490.114 217.17 490.654 217.782 491.362L215.91 493.09C215.01 492.142 213.924 491.668 212.652 491.668C211.848 491.668 211.134 491.836 210.51 492.172C209.886 492.508 209.4 492.982 209.052 493.594C208.704 494.206 208.53 494.908 208.53 495.7C208.53 496.48 208.704 497.176 209.052 497.788C209.4 498.4 209.88 498.88 210.492 499.228C211.116 499.564 211.824 499.732 212.616 499.732C213.456 499.732 214.212 499.552 214.884 499.192V495.502ZM226.359 502.216C225.051 502.216 223.869 501.934 222.813 501.37C221.769 500.806 220.947 500.032 220.347 499.048C219.759 498.052 219.465 496.936 219.465 495.7C219.465 494.464 219.759 493.354 220.347 492.37C220.947 491.374 221.769 490.594 222.813 490.03C223.869 489.466 225.051 489.184 226.359 489.184C227.667 489.184 228.843 489.466 229.887 490.03C230.931 490.594 231.753 491.374 232.353 492.37C232.953 493.354 233.253 494.464 233.253 495.7C233.253 496.936 232.953 498.052 232.353 499.048C231.753 500.032 230.931 500.806 229.887 501.37C228.843 501.934 227.667 502.216 226.359 502.216ZM226.359 499.732C227.103 499.732 227.775 499.564 228.375 499.228C228.975 498.88 229.443 498.4 229.779 497.788C230.127 497.176 230.301 496.48 230.301 495.7C230.301 494.92 230.127 494.224 229.779 493.612C229.443 493 228.975 492.526 228.375 492.19C227.775 491.842 227.103 491.668 226.359 491.668C225.615 491.668 224.943 491.842 224.343 492.19C223.743 492.526 223.269 493 222.921 493.612C222.585 494.224 222.417 494.92 222.417 495.7C222.417 496.48 222.585 497.176 222.921 497.788C223.269 498.4 223.743 498.88 224.343 499.228C224.943 499.564 225.615 499.732 226.359 499.732ZM235.444 489.4H238.36V502H235.444V489.4ZM252.906 489.4V502H250.512L244.23 494.35V502H241.35V489.4H243.762L250.026 497.05V489.4H252.906ZM264.402 495.502H267.066V500.614C266.382 501.13 265.59 501.526 264.69 501.802C263.79 502.078 262.884 502.216 261.972 502.216C260.664 502.216 259.488 501.94 258.444 501.388C257.4 500.824 256.578 500.05 255.978 499.066C255.39 498.07 255.096 496.948 255.096 495.7C255.096 494.452 255.39 493.336 255.978 492.352C256.578 491.356 257.406 490.582 258.462 490.03C259.518 489.466 260.706 489.184 262.026 489.184C263.13 489.184 264.132 489.37 265.032 489.742C265.932 490.114 266.688 490.654 267.3 491.362L265.428 493.09C264.528 492.142 263.442 491.668 262.17 491.668C261.366 491.668 260.652 491.836 260.028 492.172C259.404 492.508 258.918 492.982 258.57 493.594C258.222 494.206 258.048 494.908 258.048 495.7C258.048 496.48 258.222 497.176 258.57 497.788C258.918 498.4 259.398 498.88 260.01 499.228C260.634 499.564 261.342 499.732 262.134 499.732C262.974 499.732 263.73 499.552 264.402 499.192V495.502Z" fill="#3097F7"/>
<g filter="url(#filter1_d)">
<rect x="42.5" y="562.5" width="290" height="76" rx="16.5" stroke="white"/>
</g>
<path d="M83.3577 589.4H88.4877C89.8197 589.4 90.9957 589.67 92.0157 590.21C93.0357 590.738 93.8277 591.482 94.3917 592.442C94.9557 593.39 95.2377 594.476 95.2377 595.7C95.2377 596.924 94.9557 598.016 94.3917 598.976C93.8277 599.924 93.0357 600.668 92.0157 601.208C90.9957 601.736 89.8197 602 88.4877 602H83.3577V589.4ZM88.4157 600.848C89.5197 600.848 90.4857 600.632 91.3137 600.2C92.1417 599.756 92.7837 599.15 93.2397 598.382C93.6957 597.602 93.9237 596.708 93.9237 595.7C93.9237 594.692 93.6957 593.804 93.2397 593.036C92.7837 592.256 92.1417 591.65 91.3137 591.218C90.4857 590.774 89.5197 590.552 88.4157 590.552H84.6897V600.848H88.4157ZM103.737 602.108C102.489 602.108 101.355 601.832 100.335 601.28C99.3268 600.716 98.5348 599.948 97.9588 598.976C97.3948 598.004 97.1128 596.912 97.1128 595.7C97.1128 594.488 97.3948 593.396 97.9588 592.424C98.5348 591.452 99.3268 590.69 100.335 590.138C101.355 589.574 102.489 589.292 103.737 589.292C104.985 589.292 106.107 589.568 107.103 590.12C108.111 590.672 108.903 591.44 109.479 592.424C110.055 593.396 110.343 594.488 110.343 595.7C110.343 596.912 110.055 598.01 109.479 598.994C108.903 599.966 108.111 600.728 107.103 601.28C106.107 601.832 104.985 602.108 103.737 602.108ZM103.737 600.92C104.733 600.92 105.633 600.698 106.437 600.254C107.241 599.798 107.871 599.174 108.327 598.382C108.783 597.578 109.011 596.684 109.011 595.7C109.011 594.716 108.783 593.828 108.327 593.036C107.871 592.232 107.241 591.608 106.437 591.164C105.633 590.708 104.733 590.48 103.737 590.48C102.741 590.48 101.835 590.708 101.019 591.164C100.215 591.608 99.5788 592.232 99.1108 593.036C98.6548 593.828 98.4268 594.716 98.4268 595.7C98.4268 596.684 98.6548 597.578 99.1108 598.382C99.5788 599.174 100.215 599.798 101.019 600.254C101.835 600.698 102.741 600.92 103.737 600.92ZM121.513 602.108C120.577 602.108 119.677 601.958 118.813 601.658C117.961 601.358 117.301 600.962 116.833 600.47L117.355 599.444C117.811 599.9 118.417 600.272 119.173 600.56C119.929 600.836 120.709 600.974 121.513 600.974C122.641 600.974 123.487 600.77 124.051 600.362C124.615 599.942 124.897 599.402 124.897 598.742C124.897 598.238 124.741 597.836 124.429 597.536C124.129 597.236 123.757 597.008 123.313 596.852C122.869 596.684 122.251 596.504 121.459 596.312C120.511 596.072 119.755 595.844 119.191 595.628C118.627 595.4 118.141 595.058 117.733 594.602C117.337 594.146 117.139 593.528 117.139 592.748C117.139 592.112 117.307 591.536 117.643 591.02C117.979 590.492 118.495 590.072 119.191 589.76C119.887 589.448 120.751 589.292 121.783 589.292C122.503 589.292 123.205 589.394 123.889 589.598C124.585 589.79 125.185 590.06 125.689 590.408L125.239 591.47C124.711 591.122 124.147 590.864 123.547 590.696C122.947 590.516 122.359 590.426 121.783 590.426C120.679 590.426 119.845 590.642 119.281 591.074C118.729 591.494 118.453 592.04 118.453 592.712C118.453 593.216 118.603 593.624 118.903 593.936C119.215 594.236 119.599 594.47 120.055 594.638C120.523 594.794 121.147 594.968 121.927 595.16C122.851 595.388 123.595 595.616 124.159 595.844C124.735 596.06 125.221 596.396 125.617 596.852C126.013 597.296 126.211 597.902 126.211 598.67C126.211 599.306 126.037 599.888 125.689 600.416C125.353 600.932 124.831 601.346 124.123 601.658C123.415 601.958 122.545 602.108 121.513 602.108ZM134.622 602.108C133.374 602.108 132.24 601.832 131.22 601.28C130.212 600.716 129.42 599.948 128.844 598.976C128.28 598.004 127.998 596.912 127.998 595.7C127.998 594.488 128.28 593.396 128.844 592.424C129.42 591.452 130.212 590.69 131.22 590.138C132.24 589.574 133.374 589.292 134.622 589.292C135.87 589.292 136.992 589.568 137.988 590.12C138.996 590.672 139.788 591.44 140.364 592.424C140.94 593.396 141.228 594.488 141.228 595.7C141.228 596.912 140.94 598.01 140.364 598.994C139.788 599.966 138.996 600.728 137.988 601.28C136.992 601.832 135.87 602.108 134.622 602.108ZM134.622 600.92C135.618 600.92 136.518 600.698 137.322 600.254C138.126 599.798 138.756 599.174 139.212 598.382C139.668 597.578 139.896 596.684 139.896 595.7C139.896 594.716 139.668 593.828 139.212 593.036C138.756 592.232 138.126 591.608 137.322 591.164C136.518 590.708 135.618 590.48 134.622 590.48C133.626 590.48 132.72 590.708 131.904 591.164C131.1 591.608 130.464 592.232 129.996 593.036C129.54 593.828 129.312 594.716 129.312 595.7C129.312 596.684 129.54 597.578 129.996 598.382C130.464 599.174 131.1 599.798 131.904 600.254C132.72 600.698 133.626 600.92 134.622 600.92ZM157.299 589.4V602H156.021V591.92L151.071 600.398H150.441L145.491 591.974V602H144.213V589.4H145.311L150.783 598.742L156.201 589.4H157.299ZM170.315 600.848V602H161.405V589.4H170.045V590.552H162.737V595.034H169.253V596.168H162.737V600.848H170.315ZM175.894 590.552H171.466V589.4H181.654V590.552H177.226V602H175.894V590.552ZM194.311 589.4V602H192.997V596.186H185.113V602H183.781V589.4H185.113V595.016H192.997V589.4H194.311ZM198.424 589.4H199.756V602H198.424V589.4ZM214.386 589.4V602H213.288L205.188 591.776V602H203.856V589.4H204.954L213.072 599.624V589.4H214.386ZM227.372 595.7H228.65V600.506C228.062 601.022 227.366 601.418 226.562 601.694C225.758 601.97 224.912 602.108 224.024 602.108C222.764 602.108 221.63 601.832 220.622 601.28C219.614 600.728 218.822 599.966 218.246 598.994C217.67 598.01 217.382 596.912 217.382 595.7C217.382 594.488 217.67 593.396 218.246 592.424C218.822 591.44 219.614 590.672 220.622 590.12C221.63 589.568 222.77 589.292 224.042 589.292C225.002 589.292 225.884 589.448 226.688 589.76C227.492 590.06 228.17 590.51 228.722 591.11L227.894 591.956C226.898 590.972 225.632 590.48 224.096 590.48C223.076 590.48 222.152 590.708 221.324 591.164C220.508 591.608 219.866 592.232 219.398 593.036C218.93 593.828 218.696 594.716 218.696 595.7C218.696 596.684 218.93 597.572 219.398 598.364C219.866 599.156 220.508 599.78 221.324 600.236C222.14 600.692 223.058 600.92 224.078 600.92C225.374 600.92 226.472 600.596 227.372 599.948V595.7ZM246.041 600.848V602H237.131V589.4H245.771V590.552H238.463V595.034H244.979V596.168H238.463V600.848H246.041ZM249.172 589.4H250.504V600.848H257.56V602H249.172V589.4ZM263.105 602.108C262.169 602.108 261.269 601.958 260.405 601.658C259.553 601.358 258.893 600.962 258.425 600.47L258.947 599.444C259.403 599.9 260.009 600.272 260.765 600.56C261.521 600.836 262.301 600.974 263.105 600.974C264.233 600.974 265.079 600.77 265.643 600.362C266.207 599.942 266.489 599.402 266.489 598.742C266.489 598.238 266.333 597.836 266.021 597.536C265.721 597.236 265.349 597.008 264.905 596.852C264.461 596.684 263.843 596.504 263.051 596.312C262.103 596.072 261.347 595.844 260.783 595.628C260.219 595.4 259.733 595.058 259.325 594.602C258.929 594.146 258.731 593.528 258.731 592.748C258.731 592.112 258.899 591.536 259.235 591.02C259.571 590.492 260.087 590.072 260.783 589.76C261.479 589.448 262.343 589.292 263.375 589.292C264.095 589.292 264.797 589.394 265.481 589.598C266.177 589.79 266.777 590.06 267.281 590.408L266.831 591.47C266.303 591.122 265.739 590.864 265.139 590.696C264.539 590.516 263.951 590.426 263.375 590.426C262.271 590.426 261.437 590.642 260.873 591.074C260.321 591.494 260.045 592.04 260.045 592.712C260.045 593.216 260.195 593.624 260.495 593.936C260.807 594.236 261.191 594.47 261.647 594.638C262.115 594.794 262.739 594.968 263.519 595.16C264.443 595.388 265.187 595.616 265.751 595.844C266.327 596.06 266.813 596.396 267.209 596.852C267.605 597.296 267.803 597.902 267.803 598.67C267.803 599.306 267.629 599.888 267.281 600.416C266.945 600.932 266.423 601.346 265.715 601.658C265.007 601.958 264.137 602.108 263.105 602.108ZM279.615 600.848V602H270.705V589.4H279.345V590.552H272.037V595.034H278.553V596.168H272.037V600.848H279.615Z" fill="white"/>
</g>
<defs>
<filter id="filter0_d" x="42" y="460" width="291" height="81" filterUnits="userSpaceOnUse" color-interpolation-filters="sRGB">
<feFlood flood-opacity="0" result="BackgroundImageFix"/>
<feColorMatrix in="SourceAlpha" type="matrix" values="0 0 0 0 0 0 0 0 0 0 0 0 0 0 0 0 0 0 127 0"/>
<feOffset dy="4"/>
<feColorMatrix type="matrix" values="0 0 0 0 0 0 0 0 0 0 0 0 0 0 0 0 0 0 0.09 0"/>
<feBlend mode="normal" in2="BackgroundImageFix" result="effect1_dropShadow"/>
<feBlend mode="normal" in="SourceGraphic" in2="effect1_dropShadow" result="shape"/>
</filter>
<filter id="filter1_d" x="42" y="562" width="291" height="81" filterUnits="userSpaceOnUse" color-interpolation-filters="sRGB">
<feFlood flood-opacity="0" result="BackgroundImageFix"/>
<feColorMatrix in="SourceAlpha" type="matrix" values="0 0 0 0 0 0 0 0 0 0 0 0 0 0 0 0 0 0 127 0"/>
<feOffset dy="4"/>
<feColorMatrix type="matrix" values="0 0 0 0 0 0 0 0 0 0 0 0 0 0 0 0 0 0 0.09 0"/>
<feBlend mode="normal" in2="BackgroundImageFix" result="effect1_dropShadow"/>
<feBlend mode="normal" in="SourceGraphic" in2="effect1_dropShadow" result="shape"/>
</filter>
<clipPath id="clip0">
<rect width="375" height="812" fill="white"/>
</clipPath>
<clipPath id="clip1">
<rect width="116" height="146" fill="white" transform="translate(123 64)"/>
</clipPath>
</defs>
</svg>
